<svg xmlns="http://www.w3.org/2000/svg" viewBox="0 0 1200 300" preserveAspectRatio="xMidYMid slice" role="img" aria-label="Abstract Apolaki sun motif">
  <defs>
    <linearGradient id="sky" x1="0" y1="0" x2="0" y2="1">
      <stop offset="0%" stop-color="#0F1115"/>
      <stop offset="100%" stop-color="#1A120C"/>
    </linearGradient>
    <radialGradient id="sun" cx="50%" cy="50%" r="50%">
      <stop offset="0%" stop-color="#FFE6B0"/>
      <stop offset="40%" stop-color="#FFD27A"/>
      <stop offset="72%" stop-color="#FF8A3D"/>
      <stop offset="100%" stop-color="#C9461A" stop-opacity="0.18"/>
    </radialGradient>
    <radialGradient id="halo" cx="50%" cy="50%" r="50%">
      <stop offset="0%" stop-color="#FF8A3D" stop-opacity="0.34"/>
      <stop offset="100%" stop-color="#FF8A3D" stop-opacity="0"/>
    </radialGradient>
    <linearGradient id="ray" x1="0" y1="1" x2="0" y2="0">
      <stop offset="0%" stop-color="#F5A524" stop-opacity="0"/>
      <stop offset="100%" stop-color="#FFD27A"/>
    </linearGradient>
  </defs>
  <rect width="1200" height="300" fill="url(#sky)"/>
  <circle cx="600" cy="126" r="360" fill="url(#halo)"/>
  <g>
  <line x1="600" y1="-68" x2="600" y2="-216" transform="rotate(0.0 600 126)" stroke="url(#ray)" stroke-width="2.4" opacity="0.3"/>
  <line x1="600" y1="-68" x2="600" y2="-216" transform="rotate(12.0 600 126)" stroke="url(#ray)" stroke-width="1.4" opacity="0.13"/>
  <line x1="600" y1="-68" x2="600" y2="-216" transform="rotate(24.0 600 126)" stroke="url(#ray)" stroke-width="1.4" opacity="0.13"/>
  <line x1="600" y1="-68" x2="600" y2="-216" transform="rotate(36.0 600 126)" stroke="url(#ray)" stroke-width="2.4" opacity="0.3"/>
  <line x1="600" y1="-68" x2="600" y2="-216" transform="rotate(48.0 600 126)" stroke="url(#ray)" stroke-width="1.4" opacity="0.13"/>
  <line x1="600" y1="-68" x2="600" y2="-216" transform="rotate(60.0 600 126)" stroke="url(#ray)" stroke-width="1.4" opacity="0.13"/>
  <line x1="600" y1="-68" x2="600" y2="-216" transform="rotate(72.0 600 126)" stroke="url(#ray)" stroke-width="2.4" opacity="0.3"/>
  <line x1="600" y1="-68" x2="600" y2="-216" transform="rotate(84.0 600 126)" stroke="url(#ray)" stroke-width="1.4" opacity="0.13"/>
  <line x1="600" y1="-68" x2="600" y2="-216" transform="rotate(96.0 600 126)" stroke="url(#ray)" stroke-width="1.4" opacity="0.13"/>
  <line x1="600" y1="-68" x2="600" y2="-216" transform="rotate(108.0 600 126)" stroke="url(#ray)" stroke-width="2.4" opacity="0.3"/>
  <line x1="600" y1="-68" x2="600" y2="-216" transform="rotate(120.0 600 126)" stroke="url(#ray)" stroke-width="1.4" opacity="0.13"/>
  <line x1="600" y1="-68" x2="600" y2="-216" transform="rotate(132.0 600 126)" stroke="url(#ray)" stroke-width="1.4" opacity="0.13"/>
  <line x1="600" y1="-68" x2="600" y2="-216" transform="rotate(144.0 600 126)" stroke="url(#ray)" stroke-width="2.4" opacity="0.3"/>
  <line x1="600" y1="-68" x2="600" y2="-216" transform="rotate(156.0 600 126)" stroke="url(#ray)" stroke-width="1.4" opacity="0.13"/>
  <line x1="600" y1="-68" x2="600" y2="-216" transform="rotate(168.0 600 126)" stroke="url(#ray)" stroke-width="1.4" opacity="0.13"/>
  <line x1="600" y1="-68" x2="600" y2="-216" transform="rotate(180.0 600 126)" stroke="url(#ray)" stroke-width="2.4" opacity="0.3"/>
  <line x1="600" y1="-68" x2="600" y2="-216" transform="rotate(192.0 600 126)" stroke="url(#ray)" stroke-width="1.4" opacity="0.13"/>
  <line x1="600" y1="-68" x2="600" y2="-216" transform="rotate(204.0 600 126)" stroke="url(#ray)" stroke-width="1.4" opacity="0.13"/>
  <line x1="600" y1="-68" x2="600" y2="-216" transform="rotate(216.0 600 126)" stroke="url(#ray)" stroke-width="2.4" opacity="0.3"/>
  <line x1="600" y1="-68" x2="600" y2="-216" transform="rotate(228.0 600 126)" stroke="url(#ray)" stroke-width="1.4" opacity="0.13"/>
  <line x1="600" y1="-68" x2="600" y2="-216" transform="rotate(240.0 600 126)" stroke="url(#ray)" stroke-width="1.4" opacity="0.13"/>
  <line x1="600" y1="-68" x2="600" y2="-216" transform="rotate(252.0 600 126)" stroke="url(#ray)" stroke-width="2.4" opacity="0.3"/>
  <line x1="600" y1="-68" x2="600" y2="-216" transform="rotate(264.0 600 126)" stroke="url(#ray)" stroke-width="1.4" opacity="0.13"/>
  <line x1="600" y1="-68" x2="600" y2="-216" transform="rotate(276.0 600 126)" stroke="url(#ray)" stroke-width="1.4" opacity="0.13"/>
  <line x1="600" y1="-68" x2="600" y2="-216" transform="rotate(288.0 600 126)" stroke="url(#ray)" stroke-width="2.4" opacity="0.3"/>
  <line x1="600" y1="-68" x2="600" y2="-216" transform="rotate(300.0 600 126)" stroke="url(#ray)" stroke-width="1.4" opacity="0.13"/>
  <line x1="600" y1="-68" x2="600" y2="-216" transform="rotate(312.0 600 126)" stroke="url(#ray)" stroke-width="1.4" opacity="0.13"/>
  <line x1="600" y1="-68" x2="600" y2="-216" transform="rotate(324.0 600 126)" stroke="url(#ray)" stroke-width="2.4" opacity="0.3"/>
  <line x1="600" y1="-68" x2="600" y2="-216" transform="rotate(336.0 600 126)" stroke="url(#ray)" stroke-width="1.4" opacity="0.13"/>
  <line x1="600" y1="-68" x2="600" y2="-216" transform="rotate(348.0 600 126)" stroke="url(#ray)" stroke-width="1.4" opacity="0.13"/>
  </g>
  <circle cx="600" cy="126" r="180" fill="url(#sun)"/>
  <circle cx="600" cy="126" r="180" fill="none" stroke="#FFD27A" stroke-width="1.5" opacity="0.5"/>
  <circle cx="600" cy="126" r="118" fill="none" stroke="#FFE6B0" stroke-width="1" opacity="0.25"/>
  <!-- horizon haze -->
  <rect x="0" y="222" width="1200" height="78" fill="#0B0C10" opacity="0.55"/>
</svg>
