<svg xmlns="http://www.w3.org/2000/svg" viewBox="0 0 1200 400" preserveAspectRatio="xMidYMid slice" role="img" aria-label="Abstract Apolaki sun motif">
  <defs>
    <linearGradient id="sky" x1="0" y1="0" x2="0" y2="1">
      <stop offset="0%" stop-color="#0F1115"/>
      <stop offset="100%" stop-color="#1A120C"/>
    </linearGradient>
    <radialGradient id="sun" cx="50%" cy="50%" r="50%">
      <stop offset="0%" stop-color="#FFE6B0"/>
      <stop offset="40%" stop-color="#FFD27A"/>
      <stop offset="72%" stop-color="#FF8A3D"/>
      <stop offset="100%" stop-color="#C9461A" stop-opacity="0.18"/>
    </radialGradient>
    <radialGradient id="halo" cx="50%" cy="50%" r="50%">
      <stop offset="0%" stop-color="#FF8A3D" stop-opacity="0.34"/>
      <stop offset="100%" stop-color="#FF8A3D" stop-opacity="0"/>
    </radialGradient>
    <linearGradient id="ray" x1="0" y1="1" x2="0" y2="0">
      <stop offset="0%" stop-color="#F5A524" stop-opacity="0"/>
      <stop offset="100%" stop-color="#FFD27A"/>
    </linearGradient>
  </defs>
  <rect width="1200" height="400" fill="url(#sky)"/>
  <circle cx="864" cy="168" r="460" fill="url(#halo)"/>
  <g>
  <line x1="864" y1="-80" x2="864" y2="-269" transform="rotate(0.0 864 168)" stroke="url(#ray)" stroke-width="2.4" opacity="0.3"/>
  <line x1="864" y1="-80" x2="864" y2="-269" transform="rotate(12.857142857142858 864 168)" stroke="url(#ray)" stroke-width="1.4" opacity="0.13"/>
  <line x1="864" y1="-80" x2="864" y2="-269" transform="rotate(25.714285714285715 864 168)" stroke="url(#ray)" stroke-width="1.4" opacity="0.13"/>
  <line x1="864" y1="-80" x2="864" y2="-269" transform="rotate(38.57142857142857 864 168)" stroke="url(#ray)" stroke-width="2.4" opacity="0.3"/>
  <line x1="864" y1="-80" x2="864" y2="-269" transform="rotate(51.42857142857143 864 168)" stroke="url(#ray)" stroke-width="1.4" opacity="0.13"/>
  <line x1="864" y1="-80" x2="864" y2="-269" transform="rotate(64.28571428571429 864 168)" stroke="url(#ray)" stroke-width="1.4" opacity="0.13"/>
  <line x1="864" y1="-80" x2="864" y2="-269" transform="rotate(77.14285714285714 864 168)" stroke="url(#ray)" stroke-width="2.4" opacity="0.3"/>
  <line x1="864" y1="-80" x2="864" y2="-269" transform="rotate(90.0 864 168)" stroke="url(#ray)" stroke-width="1.4" opacity="0.13"/>
  <line x1="864" y1="-80" x2="864" y2="-269" transform="rotate(102.85714285714286 864 168)" stroke="url(#ray)" stroke-width="1.4" opacity="0.13"/>
  <line x1="864" y1="-80" x2="864" y2="-269" transform="rotate(115.71428571428572 864 168)" stroke="url(#ray)" stroke-width="2.4" opacity="0.3"/>
  <line x1="864" y1="-80" x2="864" y2="-269" transform="rotate(128.57142857142858 864 168)" stroke="url(#ray)" stroke-width="1.4" opacity="0.13"/>
  <line x1="864" y1="-80" x2="864" y2="-269" transform="rotate(141.42857142857144 864 168)" stroke="url(#ray)" stroke-width="1.4" opacity="0.13"/>
  <line x1="864" y1="-80" x2="864" y2="-269" transform="rotate(154.28571428571428 864 168)" stroke="url(#ray)" stroke-width="2.4" opacity="0.3"/>
  <line x1="864" y1="-80" x2="864" y2="-269" transform="rotate(167.14285714285714 864 168)" stroke="url(#ray)" stroke-width="1.4" opacity="0.13"/>
  <line x1="864" y1="-80" x2="864" y2="-269" transform="rotate(180.0 864 168)" stroke="url(#ray)" stroke-width="1.4" opacity="0.13"/>
  <line x1="864" y1="-80" x2="864" y2="-269" transform="rotate(192.85714285714286 864 168)" stroke="url(#ray)" stroke-width="2.4" opacity="0.3"/>
  <line x1="864" y1="-80" x2="864" y2="-269" transform="rotate(205.71428571428572 864 168)" stroke="url(#ray)" stroke-width="1.4" opacity="0.13"/>
  <line x1="864" y1="-80" x2="864" y2="-269" transform="rotate(218.57142857142858 864 168)" stroke="url(#ray)" stroke-width="1.4" opacity="0.13"/>
  <line x1="864" y1="-80" x2="864" y2="-269" transform="rotate(231.42857142857144 864 168)" stroke="url(#ray)" stroke-width="2.4" opacity="0.3"/>
  <line x1="864" y1="-80" x2="864" y2="-269" transform="rotate(244.2857142857143 864 168)" stroke="url(#ray)" stroke-width="1.4" opacity="0.13"/>
  <line x1="864" y1="-80" x2="864" y2="-269" transform="rotate(257.14285714285717 864 168)" stroke="url(#ray)" stroke-width="1.4" opacity="0.13"/>
  <line x1="864" y1="-80" x2="864" y2="-269" transform="rotate(270.0 864 168)" stroke="url(#ray)" stroke-width="2.4" opacity="0.3"/>
  <line x1="864" y1="-80" x2="864" y2="-269" transform="rotate(282.8571428571429 864 168)" stroke="url(#ray)" stroke-width="1.4" opacity="0.13"/>
  <line x1="864" y1="-80" x2="864" y2="-269" transform="rotate(295.7142857142857 864 168)" stroke="url(#ray)" stroke-width="1.4" opacity="0.13"/>
  <line x1="864" y1="-80" x2="864" y2="-269" transform="rotate(308.57142857142856 864 168)" stroke="url(#ray)" stroke-width="2.4" opacity="0.3"/>
  <line x1="864" y1="-80" x2="864" y2="-269" transform="rotate(321.42857142857144 864 168)" stroke="url(#ray)" stroke-width="1.4" opacity="0.13"/>
  <line x1="864" y1="-80" x2="864" y2="-269" transform="rotate(334.2857142857143 864 168)" stroke="url(#ray)" stroke-width="1.4" opacity="0.13"/>
  <line x1="864" y1="-80" x2="864" y2="-269" transform="rotate(347.14285714285717 864 168)" stroke="url(#ray)" stroke-width="2.4" opacity="0.3"/>
  </g>
  <circle cx="864" cy="168" r="230" fill="url(#sun)"/>
  <circle cx="864" cy="168" r="230" fill="none" stroke="#FFD27A" stroke-width="1.5" opacity="0.5"/>
  <circle cx="864" cy="168" r="151" fill="none" stroke="#FFE6B0" stroke-width="1" opacity="0.25"/>
  <!-- horizon haze -->
  <rect x="0" y="296" width="1200" height="104" fill="#0B0C10" opacity="0.55"/>
</svg>
